<?xml version="1.0" standalone="no"?>
<!DOCTYPE svg PUBLIC "-//W3C//DTD SVG 20010904//EN"
 "http://www.w3.org/TR/2001/REC-SVG-20010904/DTD/svg10.dtd">
<svg version="1.0" xmlns="http://www.w3.org/2000/svg"
 width="260.000000pt" height="260.000000pt" viewBox="0 0 260.000000 260.000000"
 preserveAspectRatio="xMidYMid meet">
<metadata>
Created by potrace 1.14, written by Peter Selinger 2001-2017
</metadata>
<g transform="translate(0.000000,260.000000) scale(0.100000,-0.100000)"
fill="#000000" stroke="none">
<path d="M1390 2520 c-7 -4 -22 -7 -32 -5 -10 2 -16 0 -13 -6 4 -5 -2 -12 -12
-16 -36 -14 -90 -84 -78 -103 3 -5 2 -10 -3 -10 -13 0 -22 -36 -11 -47 5 -5
10 -29 11 -53 2 -25 8 -48 13 -52 6 -4 10 -16 10 -26 0 -10 6 -26 14 -35 7
-10 11 -17 7 -17 -3 0 -1 -11 4 -25 7 -18 6 -25 -2 -25 -7 0 -3 -7 8 -16 10
-8 12 -12 4 -8 -13 7 -13 6 -1 -9 11 -14 11 -23 3 -42 -7 -14 -16 -26 -22 -26
-5 -1 -13 -3 -17 -4 -5 -2 -18 -6 -30 -10 -13 -4 -23 -12 -23 -19 0 -6 -5 -4
-10 4 -7 11 -10 11 -10 2 0 -7 -4 -10 -10 -7 -5 3 -10 1 -10 -5 0 -6 -4 -8
-10 -5 -5 3 -10 2 -10 -3 0 -6 -9 -8 -20 -5 -11 3 -20 1 -20 -5 0 -5 -18 -12
-40 -16 -23 -3 -39 -10 -36 -15 3 -5 -8 -7 -25 -5 -19 2 -32 -1 -35 -11 -4 -8
-10 -12 -15 -9 -6 3 -16 0 -24 -6 -12 -10 -15 -10 -15 1 -1 11 -3 11 -13 -2
-10 -13 -41 -17 -80 -10 -4 0 -13 13 -19 29 -6 15 -12 29 -14 32 -1 3 -5 15
-9 28 -4 12 -11 22 -15 22 -4 0 -6 11 -5 25 2 16 -2 25 -10 25 -8 0 -12 8 -10
20 2 11 -1 20 -6 20 -6 0 -7 5 -4 10 3 6 2 10 -4 10 -5 0 -12 9 -16 20 -9 27
-80 100 -98 100 -9 0 -17 4 -19 9 -5 15 -84 17 -101 3 -7 -7 -17 -9 -21 -5 -4
4 -10 3 -14 -2 -4 -6 -24 -21 -44 -35 -20 -13 -34 -28 -32 -32 3 -4 0 -8 -5
-8 -27 0 -55 -130 -32 -145 6 -3 9 -18 7 -33 -1 -15 3 -39 11 -54 7 -15 13
-35 13 -44 0 -10 7 -26 17 -36 9 -10 11 -18 5 -18 -13 0 -5 -28 15 -52 11 -12
12 -18 2 -24 -8 -5 -10 -3 -4 6 5 8 4 11 -3 7 -5 -4 -8 -16 -5 -27 4 -16 -1
-21 -26 -26 -17 -4 -31 -11 -31 -16 0 -5 -4 -7 -9 -3 -5 3 -12 1 -16 -5 -4 -6
-11 -7 -17 -4 -6 4 -14 1 -18 -6 -4 -7 -20 -12 -35 -12 -14 0 -29 -6 -31 -13
-3 -7 -16 -11 -30 -9 -13 1 -22 -2 -19 -6 3 -5 -5 -12 -17 -16 -21 -6 -95 -74
-81 -74 3 0 -1 -8 -8 -17 -12 -15 -12 -16 1 -8 13 8 13 7 1 -8 -17 -21 -21
-118 -5 -124 7 -2 11 -15 9 -29 -1 -15 3 -24 12 -24 8 0 12 -4 9 -8 -6 -11 22
-35 62 -53 18 -8 32 -17 32 -20 0 -9 103 -5 118 4 7 5 12 3 12 -5 1 -9 4 -8
13 3 7 9 22 15 34 14 13 -1 23 2 23 6 0 5 7 5 17 2 10 -4 14 -2 9 5 -4 7 4 11
21 11 51 2 63 4 63 13 0 5 12 7 27 5 21 -3 34 -14 51 -48 13 -24 24 -52 25
-61 1 -10 4 -18 7 -18 3 0 6 -10 7 -22 1 -11 6 -24 11 -27 5 -3 10 -14 10 -23
4 -42 6 -48 14 -48 4 0 8 -13 8 -29 0 -16 4 -31 10 -33 5 -2 11 -22 12 -45 2
-24 6 -43 9 -43 4 0 9 -11 11 -25 3 -13 1 -22 -3 -19 -5 3 -9 -1 -9 -8 0 -17
-35 -48 -55 -48 -7 0 -17 -5 -21 -11 -3 -6 -15 -9 -25 -6 -11 3 -19 1 -19 -5
0 -5 -5 -6 -10 -3 -6 3 -10 1 -10 -6 0 -7 -3 -9 -7 -6 -3 4 -17 0 -31 -9 -13
-9 -21 -11 -17 -4 4 6 -11 0 -33 -14 -22 -14 -43 -22 -46 -19 -3 4 -6 -1 -6
-10 0 -9 -6 -17 -14 -17 -12 0 -27 -22 -27 -40 0 -3 -8 -14 -17 -24 -13 -15
-13 -17 -2 -11 12 7 13 6 3 -6 -10 -12 -10 -18 0 -29 9 -10 9 -11 0 -6 -15 8
-19 -39 -4 -48 5 -4 8 -17 6 -31 -1 -14 2 -25 7 -25 5 0 6 -4 3 -10 -3 -5 -1
-10 4 -10 6 0 11 -6 11 -13 0 -25 65 -66 115 -71 17 -2 30 -5 30 -6 0 -1 10
-3 22 -4 12 -1 20 0 18 4 -2 3 19 7 47 8 28 1 55 6 62 11 6 5 22 11 36 13 14
1 28 7 31 11 4 5 29 9 57 10 53 0 75 -13 80 -48 2 -11 10 -25 18 -32 10 -7 11
-13 5 -17 -6 -4 -3 -18 9 -38 10 -17 17 -35 14 -40 -3 -4 2 -18 11 -31 8 -13
12 -27 8 -30 -3 -4 -1 -7 5 -7 7 0 12 -7 12 -15 0 -19 67 -86 91 -90 11 -2 24
-7 31 -11 7 -5 8 -3 3 5 -7 12 2 10 36 -11 3 -1 13 3 22 11 14 11 17 11 17 0
0 -11 2 -11 10 1 7 11 10 12 10 2 0 -9 10 -7 31 8 16 12 32 20 35 17 8 -7 73
56 67 66 -2 4 2 10 11 13 8 3 13 14 11 25 -2 10 1 21 7 25 6 4 5 10 -3 15 -11
7 -11 9 -1 9 9 0 10 5 4 17 -5 10 -8 26 -7 36 2 9 -1 17 -6 17 -6 0 -7 5 -4
10 4 6 1 18 -6 26 -6 8 -9 17 -5 21 3 3 -2 15 -11 26 -10 11 -13 17 -6 13 9
-5 8 1 -1 20 -8 14 -13 33 -12 42 2 9 -3 22 -10 29 -31 32 29 97 101 110 10 2
22 8 26 15 4 6 11 8 17 4 6 -3 16 0 24 7 7 7 22 12 33 12 11 0 23 4 27 9 6 9
29 16 58 18 8 1 17 4 20 8 3 4 25 10 49 14 25 3 47 9 50 14 17 23 98 -16 88
-42 -5 -12 18 -38 26 -30 2 3 2 -7 0 -21 -3 -15 -1 -25 6 -25 6 0 11 -8 11
-19 0 -10 7 -31 14 -47 8 -15 13 -31 11 -35 -3 -4 2 -9 10 -13 8 -3 12 -12 9
-21 -4 -8 1 -17 10 -21 9 -3 13 -10 10 -15 -3 -5 2 -9 10 -9 9 0 16 -7 16 -15
0 -9 12 -18 30 -21 17 -4 30 -10 30 -15 0 -4 9 -6 20 -4 11 2 20 0 20 -4 0
-11 83 -2 91 10 3 6 9 10 13 10 3 -1 10 -1 15 -1 14 0 81 66 81 79 0 7 4 10 9
7 11 -7 19 12 16 41 -1 12 2 20 5 18 4 -3 8 7 8 20 0 14 -6 25 -12 25 -6 0 -4
5 4 10 10 7 11 10 2 10 -7 0 -11 11 -10 29 1 16 -3 35 -9 43 -6 7 -13 27 -14
43 -2 17 -8 33 -13 36 -5 4 -8 20 -8 35 1 16 -4 39 -10 51 -14 29 5 78 27 70
7 -3 19 1 25 9 7 8 25 14 41 14 15 0 31 5 34 10 4 6 11 8 16 5 5 -4 9 -1 9 5
0 7 7 10 15 6 8 -3 15 -1 15 5 0 6 5 7 10 4 6 -3 10 -1 10 4 0 6 3 10 8 9 30
-8 125 80 131 122 1 14 6 32 10 40 4 8 7 22 6 30 -1 8 -3 25 -3 38 -1 13 -6
21 -11 17 -6 -3 -8 3 -6 14 2 11 -9 36 -26 57 -16 20 -29 33 -29 28 -1 -5 -9
0 -18 11 -19 21 -34 28 -69 28 -13 1 -23 5 -23 10 0 4 -6 5 -12 0 -7 -4 -34
-8 -60 -8 -26 0 -50 -4 -55 -9 -5 -5 -2 -6 6 -1 9 5 12 4 8 -2 -4 -6 -20 -10
-37 -9 -16 1 -31 -3 -34 -9 -2 -7 -19 -12 -37 -13 -17 0 -35 -6 -39 -12 -5 -8
-10 -9 -14 -2 -4 6 -13 9 -21 5 -18 -6 -47 15 -39 28 3 5 -1 9 -8 9 -8 0 -14
8 -15 18 -1 9 -11 39 -22 65 -12 27 -21 55 -21 63 0 8 -4 14 -10 14 -5 0 -10
5 -10 11 0 5 6 7 13 3 10 -6 10 -4 0 7 -7 7 -13 21 -13 31 0 9 -8 22 -17 28
-13 8 -15 13 -5 17 10 4 10 8 1 19 -6 7 -9 21 -5 29 3 9 2 13 -4 10 -6 -3 -11
2 -11 12 -5 64 -3 83 8 83 7 0 13 5 13 11 0 5 4 8 9 5 5 -3 12 1 15 10 3 8 10
13 15 9 5 -3 12 -1 16 5 4 6 11 8 16 5 5 -4 9 -2 9 3 0 6 7 13 16 16 10 4 13
2 7 -7 -4 -6 5 -4 21 6 15 11 37 17 47 14 10 -3 16 -1 13 4 -3 5 3 12 13 16
55 20 118 93 125 145 2 12 7 28 10 34 4 6 4 14 0 18 -4 4 -7 22 -8 39 -1 19
-6 31 -13 30 -6 -2 -11 6 -11 17 0 22 -54 85 -74 85 -6 1 -21 6 -33 13 -13 7
-23 10 -23 6 0 -3 -7 -1 -15 6 -9 7 -15 8 -15 2 0 -6 -13 -7 -35 -2 -29 7 -34
6 -25 -5 9 -11 6 -13 -15 -11 -14 2 -28 0 -30 -4 -3 -5 -14 -6 -25 -3 -11 3
-20 0 -20 -6 0 -6 -10 -11 -23 -11 -13 0 -28 -5 -33 -10 -6 -6 -32 -11 -59
-12 -39 0 -52 4 -67 22 -10 12 -15 26 -12 31 3 5 1 9 -3 9 -4 0 -19 36 -33 80
-14 44 -28 80 -32 80 -5 0 -8 5 -8 11 0 6 -7 17 -15 26 -8 8 -12 19 -9 25 4 7
2 8 -4 4 -7 -4 -12 -2 -12 4 0 6 -4 8 -10 5 -6 -3 -7 1 -4 9 4 11 0 16 -14 16
-11 0 -22 5 -24 10 -2 6 -13 12 -26 13 -12 0 -22 4 -22 7 0 9 -85 9 -100 0z
m63 -925 c9 -4 17 -13 17 -20 0 -7 7 -16 16 -19 9 -4 14 -9 11 -12 -3 -4 3
-24 13 -45 11 -21 20 -45 20 -54 0 -8 4 -15 8 -15 5 0 9 -6 10 -12 1 -19 7
-39 21 -72 6 -15 12 -39 13 -52 1 -13 6 -24 10 -24 4 0 7 -3 7 -7 -1 -5 0 -10
1 -13 7 -15 5 -80 -2 -80 -4 0 -8 -6 -8 -13 0 -16 -29 -44 -50 -49 -8 -2 -18
-7 -21 -11 -3 -5 -12 -9 -20 -10 -8 -2 -21 -7 -29 -12 -15 -9 -34 -15 -57 -17
-7 -1 -14 -7 -17 -14 -3 -7 -13 -10 -24 -7 -10 2 -25 -2 -33 -9 -8 -7 -24 -13
-36 -12 -13 1 -23 -3 -23 -8 0 -5 -4 -7 -9 -3 -5 3 -12 1 -15 -3 -3 -5 -21 -8
-40 -7 -19 1 -33 -2 -31 -6 3 -4 -2 -10 -11 -13 -10 -4 -13 -2 -8 7 5 8 2 7
-9 -2 -9 -7 -17 -9 -17 -4 0 6 -9 20 -20 33 -11 12 -17 26 -15 30 3 4 -2 11
-11 14 -9 4 -14 13 -10 21 3 8 1 15 -4 15 -6 0 -10 6 -10 13 0 7 -9 29 -19 50
-10 20 -15 37 -10 37 5 0 3 10 -5 23 -8 12 -17 37 -21 55 -4 17 -10 32 -14 32
-5 0 -8 8 -8 18 0 51 -4 73 -12 67 -14 -8 20 56 39 74 9 9 23 17 31 19 7 2 17
8 20 13 3 6 10 9 15 8 9 -2 55 14 84 29 8 4 24 8 35 7 11 0 23 5 27 10 4 6 11
10 15 10 4 1 19 7 31 14 13 7 26 10 30 7 3 -3 -1 -6 -8 -6 -7 0 -11 -2 -8 -5
3 -3 18 1 33 9 16 8 32 13 37 10 4 -3 8 -1 8 5 0 17 48 21 83 6z"/>
</g>
</svg>
